    <svg xmlns="http://www.w3.org/2000/svg" width="24" height="24" fill="currentColor" viewBox="0 0 24 24">
        <path d="M12 .297c-6.63 0-12 5.373-12 12 0 5.303 3.438 9.8 8.205 11.385.6.113.82-.258.82-.577v-2.234c-3.338.724-4.033-1.415-4.033-1.415-.546-1.387-1.333-1.757-1.333-1.757-1.089-.744.084-.729.084-.729 1.205.084 1.84 1.236 1.84 1.236 1.07 1.835 2.809 1.305 3.495.998.108-.775.419-1.305.762-1.605-2.665-.305-5.467-1.332-5.467-5.931 0-1.311.468-2.381 1.235-3.221-.123-.303-.535-1.523.117-3.176 0 0 1.008-.322 3.3 1.23.96-.267 1.98-.399 3-.405 1.02.006 2.04.138 3 .405 2.289-1.552 3.295-1.23 3.295-1.23.653 1.653.241 2.873.118 3.176.77.84 1.234 1.91 1.234 3.221 0 4.609-2.805 5.625-5.475 5.921.43.372.815 1.104.815 2.222v3.293c0 .319.216.694.825.577 4.765-1.584 8.2-6.081 8.2-11.385 0-6.627-5.373-12-12-12z"/>
    </svg>